<svg version="1.1" id="little-dude" xmlns="http://www.w3.org/2000/svg" xmlns:xlink="http://www.w3.org/1999/xlink" x="0px"
	 y="0px" viewBox="0 0 1000 1000" enable-background="new 0 0 1000 1000" xml:space="preserve">
<rect id="background" x="15" y="16" fill="#FFFFFF" width="969" height="969"/>
<path id="face" fill="#FFFFFF" stroke="#000000" stroke-width="4" stroke-miterlimit="10" d="M358.4,720.7
	c0,0,116.8,155.6,276.6,70.8l20.9-68.1c0,0,97-97.2,118.2-143.2c21.1-46,91.8-226.6,82-257.2c-9.7-30.6-2.8-22.5-39.3-70.9
	s-68-77.9-130.1-79.5s-131-11.3-221.3,86.3s-51.4,306.4-51.4,327.8C414,607.9,411.4,676.3,358.4,720.7z"/>
<g id="eyes">
	<path id="left_eye" stroke="#000000" stroke-width="4" stroke-miterlimit="10" d="M465.4,365.3H478c0,0,0.8,38,16.7,43.1
		c12.5,4,16.7,12.5,41.7-21.5l12.5,10.4c0,0-32,41.7-52.8,27.8C475.2,411.2,466.8,415.4,465.4,365.3z"/>
	<path stroke="#000000" stroke-width="4" stroke-miterlimit="10" d="M744.9,472.4c0,0-34.9,38-47.3,24.3c-17.4-18.9-7-48.7-7-48.7
		l13.9,11.1c0,0-12.4,17-4,23.9c8.3,7,15.2,5.3,31.8-19.7"/>
</g>
<path id="nose" fill="#FFFFFF" stroke="#000000" stroke-width="4" stroke-miterlimit="10" d="M603.1,524.5c0,0-25-12.5-13.9-27.8
	s69.5-89,69.5-89l-36.1,116.8H603.1z"/>
<path id="mouth" fill="#FFFFFF" stroke="#000000" stroke-width="4" stroke-miterlimit="10" d="M548.9,544
	c-0.6-4.2,73.7,28.6,73.7,28.6s-43.1,24.2-55.6,8.9C554.4,566.2,553,576,548.9,544z"/>
<path id="shirt" fill="#FFFFFF" stroke="#000000" stroke-width="4" stroke-miterlimit="10" d="M195.7,975.6
	c0,0,11.1-145.3,125.1-223.1c0,0,75.1,130.7,301.7,101.5c0,0-11.1,130.7,0,121.6S195.7,975.6,195.7,975.6z"/>
<path id="collar" fill="#FFFFFF" stroke="#000000" stroke-width="4" stroke-miterlimit="10" d="M357,720.7c0,0,76.5,75.5,107,81.3
	c30.6,5.8,54.2,33.5,169.6-7.2l-11.1,59.4c0,0-193.2,42.5-303.1-100L357,720.7z"/>
<g id="drops">
	<path id="drop-3" fill="#FFFFFF" stroke="#000000" stroke-width="4" stroke-miterlimit="10" d="M793.5,617.7
		c-15.3,87.6-1.4,89,13.9,91.8C822.7,712.2,793.5,617.7,793.5,617.7z"/>
	<path id="drop-2" fill="#FFFFFF" stroke="#000000" stroke-width="4" stroke-miterlimit="10" d="M754.6,759.5c0,0-27.8,82,0,83.4
		C782.4,844.3,754.6,759.5,754.6,759.5z"/>
	<path id="drop-1" fill="#FFFFFF" stroke="#000000" stroke-width="4" stroke-miterlimit="10" d="M803.8,740.7c0,0-17.4,103,16,99.3
		C853.3,836.3,803.8,740.7,803.8,740.7z"/>
</g>
<polygon id="line-4" fill="#FFFFFF" stroke="#000000" stroke-width="4" stroke-miterlimit="10" points="533.6,158.9 507.1,31 
	465.4,47.7 507.1,165.8 "/>
<polygon id="line-3" fill="#FFFFFF" stroke="#000000" stroke-width="4" stroke-miterlimit="10" points="440.4,220.1 465.4,197.8 
	409.3,71.3 366.7,107.5 "/>
<polygon id="line-2" fill="#FFFFFF" stroke="#000000" stroke-width="4" stroke-miterlimit="10" points="409.3,272.8 416.1,256.2 
	319.5,145.7 295.8,208.9 "/>
<polygon id="line-1" fill="#FFFFFF" stroke="#000000" stroke-width="4" stroke-miterlimit="10" points="394.7,304.4 390.4,336 
	277.8,336 270.8,272.8 "/>
<circle id="cheek-left" fill="#FFFFFF" stroke="#000000" stroke-width="4" stroke-miterlimit="10" cx="451.5" cy="499.1" r="32.9"/>
<circle id="cheek-right" fill="#FFFFFF" stroke="#000000" stroke-width="4" stroke-miterlimit="10" cx="698.4" cy="574" r="36"/>
<polygon id="star" fill="#FFFFFF" stroke="#000000" stroke-width="4" stroke-miterlimit="10" points="195.7,484.5 201.9,558.9 
	139.4,586.5 201.9,604 201.9,681 240.8,617.7 300.6,636.7 270.8,576.9 300.6,521.6 238.1,543.6 "/>
</svg>
