<svg version="1.1" id="weird-lady" xmlns="http://www.w3.org/2000/svg" xmlns:xlink="http://www.w3.org/1999/xlink" x="0px" y="0px"
	 viewBox="0 0 1000 1000" enable-background="new 0 0 1000 1000" xml:space="preserve">
<rect id="background" x="20.4" y="24.3" fill="#FFFFFF" width="948.1" height="948.1"/>
<path id="shirt_1_" fill="#FFFFFF" stroke="#000000" stroke-width="3" stroke-miterlimit="10" d="M204.3,963.6
	c0,0,39.5-153.3,162.5-247.9c0,0,166.4,133.5,364.7-34.9c0,0,78.6,83.9,34.6,234L204.3,963.6z"/>
<path id="collar_1_" fill="#FFFFFF" stroke="#000000" stroke-width="3" stroke-miterlimit="10" d="M398.2,685.6l-31.4,30.1
	c0,0,156.5,131,364.7-34.9l-43.4-41.2C688.1,639.5,581.5,783.6,398.2,685.6z"/>
<path id="face" fill="#FFFFFF" stroke="#000000" stroke-width="3" stroke-miterlimit="10" d="M372.9,562.3
	c30.1,9.3,43.4,40.9,46,58.3s-13.3,53-13.3,53c-7.3,12-7.3,12-7.3,12S574.9,789,688.1,639.5c0,0-61.1-35.8-52.5-66.7
	c8.7-30.9,18.6-44.5,70.5-86.5c52-42.1,80.3-102.6,90.2-149.6s9.1-149.1-16.9-181.1c-26-32.2-444.2-20.3-444.2-20.3
	s-34.6,0-56.9,16.1s-54.4,35.9-54.4,65.6s-18.6,38.3,14.8,195.3S372.9,562.3,372.9,562.3z"/>
<g id="hair">
	<path id="hair-sides" fill="#FFFFFF" stroke="#000000" stroke-width="3" stroke-miterlimit="10" d="M700.7,484.2
		c-47,29.7-63.2,63.5-66.8,75c-3.6,11.5-10.2,12.2-3.2,25.9c7,13.7,40.3-32.3,40.3-32.3s19.8,103.2,55,0c0,0,41,113.2,48-10.5
		c0,0,44.6,122.4,42-13.6c0,0,56.6,117.4,46.7-13.6c-9.9-131-23.6-105-32.3-169.4s-29.2-73.8-35.4-127c-6.2-53.2-3.5-86.5-44.3-92.7
		c-40.7-6.2-162.6-57.2-162.6-57.2s-122.4-18.6-201.5,0s-148.3,45.8-166.9,68s-34.6,69.3-47,101.3c-12.4,32.1-22.3,96.4-28.5,147.1
		s-24.7,82.8-22.3,140.9c2.6,58-31.2,113.2-0.1,152.4c31.1,39.2,38.6-54.7,38.6-51c0,3.7,54.4,123.6,77.8,2.5
		c0,0,50.7,76.5,65.6,7.3c14.8-69.2,15.8-89.6,15.8-89.6s-66.1-35-86.1-215.4c0,0-34.1-135.1,27.6-173.3s36.7-25.4,147.9-30.9
		c111.1-5.6,279.2-9.3,279.2-9.3l5.7,90.7C687.1,430.5,747.7,454.5,700.7,484.2z"/>
	<path id="hair-top" fill="#FFFFFF" stroke="#000000" stroke-width="3" stroke-miterlimit="10" d="M835.3,264.4
		c27.1-70.7-142.4-234-228.7-206.7C596,61,473.7,56,449.6,57.9c-26,2.1-44-5.4-116.2,20.6S224.1,123,219.2,144
		c-4.9,21-16.1,121.1,19.8,138.4c0,0,55.7,71.6,76.6-6.2c0,0,58.1,93.9,80.3-9.9c0,0,39.6,114.9,81.5-7.4c0,0,69.3,132.3,110,0
		c0,0,57.1,171.2,85.6-9.3c0,0,66.3,169,87.3,10.7C760.3,260.4,803.1,417.7,835.3,264.4"/>
</g>
<path id="eye-right" fill="#FFFFFF" stroke="#000000" stroke-width="3" stroke-miterlimit="10" d="M507.2,372.3c0,0,3.6-71.5,47.7,4
	c0,0,24.6-88.3,44-13.3l-40,82L507.2,372.3z"/>
<path id="eye-left" fill="#FFFFFF" stroke="#000000" stroke-width="3" stroke-miterlimit="10" d="M264.2,405.4
	c0,0-20.4-68.8,46.4-12.1c0,0-6.2-91.4,37.1-27.2l-10.5,90.6L264.2,405.4z"/>
<path id="nose" fill="#FFFFFF" stroke="#000000" stroke-width="3" stroke-miterlimit="10" d="M416.4,367.9
	c-11.1,66.5-27.2,86.1-16.1,88.9c11.1,2.8,21.1,0,21.1,0L416.4,367.9z"/>
<path id="mouth" stroke="#000000" stroke-width="3" stroke-miterlimit="10" d="M351.8,485.7h129
	C480.8,485.7,426.5,536.1,351.8,485.7z"/>
<g id="cheek-right">
	<polygon id="cheek-right-1_1_" fill="#FFFFFF" stroke="#000000" stroke-width="3" stroke-miterlimit="10" points="639,426.2 
		579.5,478.7 588.6,485.7 646,436.3 	"/>
	<polygon id="cheek-right-1" fill="#FFFFFF" stroke="#000000" stroke-width="3" stroke-miterlimit="10" points="595.7,497 
		608.8,508.1 665.2,458 656.1,450.5 	"/>
</g>
<g id="cheek-left">
	<polygon id="cheek-left-2" fill="#FFFFFF" stroke="#000000" stroke-width="3" stroke-miterlimit="10" points="277.3,468.6 
		291.4,458 338.7,508.1 326.7,515 	"/>
	<polygon id="cheek-left-1" fill="#FFFFFF" stroke="#000000" stroke-width="3" stroke-miterlimit="10" points="304.4,530 315.5,522 
		282.4,485.7 270.1,493.7 	"/>
</g>
</svg>
